<?xml version="1.0" encoding="UTF-8"?>
<svg id="Layer_2" data-name="Layer 2" xmlns="http://www.w3.org/2000/svg" viewBox="0 0 176.75 43.08">
  <defs>
    <style>
      .cls-1 {
        fill: #ed2224;
      }
    </style>
  </defs>
  <g id="Layer_1-2" data-name="Layer 1">
    <g>
      <g>
        <path class="cls-1" d="M2.79,15.19v4.74h.07c.96-2.75,2.67-5.3,5.94-5.3l1.15.08v2.99h-.64c-2.39,0-4.06,1.16-5.22,3.19-.83,1.47-1,2.75-1,4.34v10.2H0V15.19h2.79Z"/>
        <path class="cls-1" d="M29.81,29.89c-1.2,3.71-4.74,5.94-8.61,5.94-6.14,0-9.28-4.86-9.28-10.52s3.31-10.64,9.37-10.64,9,5.26,8.84,10.88h-14.7c0,1.59.08,3.07.84,4.58.95,1.91,3.07,3.07,5.18,3.07,2.63,0,4.54-1.51,5.42-3.91l2.95.6ZM26.7,23.24c.04-3.35-1.84-6.18-5.42-6.18-3.39,0-5.58,2.99-5.7,6.18h11.12Z"/>
        <path class="cls-1" d="M47.69,8.09h3.11v27.34h-2.83v-3.59h-.08c-1.27,2.55-3.35,3.99-6.33,3.99-2.67,0-4.7-1.28-6.17-3.43-1.4-2.07-1.91-4.62-1.91-7.09,0-5.06,2.51-10.64,8.37-10.64,2.59,0,4.42,1.23,5.86,3.26v-9.84ZM47.69,23.43c0-1.39-.2-2.83-1.03-4.02-1-1.44-2.79-2.27-4.54-2.27s-3.23,1.08-4.11,2.55c-.91,1.59-1.19,3.43-1.19,5.26,0,3.3.87,8.29,5.22,8.29,1.8,0,3.43-1,4.46-2.43.96-1.31,1.2-2.63,1.2-4.14v-3.23Z"/>
        <path class="cls-1" d="M67.02,35.43h-1.51V8.09h3.11v10.44h.16c1.27-2.39,3.07-3.87,5.94-3.87,2.47,0,4.86,1.32,6.21,3.31,1.35,1.99,1.91,4.7,1.91,7.05,0,5.14-2.47,10.8-8.45,10.8-2.67,0-4.98-1.6-6.21-3.87l-1.15,3.47ZM68.61,26.94c.08,1.35.36,2.87,1.16,4.06.96,1.39,2.67,2.31,4.38,2.31,4.14,0,5.34-4.42,5.34-7.77s-1.03-8.37-5.34-8.37c-3.19,0-5.46,3.23-5.54,6.18v3.59Z"/>
        <path class="cls-1" d="M100.88,22.88v-.88c0-3.55-1.55-4.9-5.14-4.9-2.55,0-4.98.8-5.54,3.59l-2.91-.48c.56-4.22,5.02-5.54,8.73-5.54,2.19,0,4.7.24,6.22,1.99,1.67,1.79,1.67,4.34,1.67,6.65v7.85c0,1.47.04,2.95.44,4.26h-3.11l-.36-3.79c-1.44,2.91-3.87,4.19-7.09,4.19-3.78,0-7.05-2.11-7.05-6.14,0-2.43,1.52-4.62,3.74-5.62,2.27-1.08,5.26-1.2,7.77-1.2h2.63ZM100.88,25.23h-2.59c-3.18,0-8.21.44-8.21,4.62,0,2.51,2.15,3.55,4.38,3.55,3.82,0,6.42-3.27,6.42-6.86v-1.31Z"/>
        <path class="cls-1" d="M111.76,18.93h.08c1.16-2.51,3.43-4.26,6.3-4.26,2.43,0,4.46,1.03,5.74,3.15,1.04,1.71.95,4.42.95,6.42v11.2h-3.11v-12.51c0-1.2.04-2.71-.56-3.75-.68-1.15-2.15-1.83-3.47-1.83-1.63,0-3.11.76-4.18,2.03-1.31,1.59-1.59,3.43-1.59,5.46v10.6h-3.11V15.19h2.95v3.75Z"/>
        <path class="cls-1" d="M145.87,12.04l.8.04.04,2.51h-.32c-1.83,0-3.26.2-3.58,2.31,1.24,1.35,1.96,3.15,1.96,4.98,0,1.99-1.07,3.86-2.59,5.06-1.47,1.12-3.31,1.55-5.14,1.55-.48,0-.96,0-1.43-.12-.32-.04-.96-.2-1.32-.2-.96,0-2.15.84-2.15,1.87,0,.96.64,1.47,1.51,1.71,1.39.32,3.35.28,4.78.32,1.75.08,4.34.12,5.94.72,1.87.72,3.11,2.47,3.11,4.46,0,5.14-6.09,5.82-10,5.82-1.87,0-4.18-.12-5.94-.8-1.95-.8-3.47-2.23-3.47-4.46,0-2.11,1.16-3.43,3.07-4.1-1.15-.76-1.95-1.67-1.95-3.19,0-1.99,1.15-2.87,2.79-3.62-1.71-1.36-2.63-3.15-2.63-5.34,0-4.38,3.71-6.89,7.77-6.89,1.4,0,2.83.28,4.1.87.52-2.87,1.91-3.51,4.66-3.51M138.17,34.95l-4.86-.32c-1.19.56-2.19,1.31-2.19,2.75,0,2.79,4.3,3.27,6.37,3.27,1.52,0,3.87-.24,5.22-.88,1.12-.48,1.76-1.15,1.76-2.39,0-2.07-2.75-2.35-4.3-2.39l-1.99-.04ZM141.6,21.56c0-2.55-2.03-4.42-4.5-4.42-2.63,0-4.54,1.87-4.54,4.46,0,2.75,1.79,4.46,4.54,4.46s4.5-1.79,4.5-4.5"/>
        <rect class="cls-1" x="150.73" y="8.09" width="3.11" height="27.34"/>
        <path class="cls-1" d="M176.43,29.89c-1.2,3.71-4.74,5.94-8.61,5.94-6.14,0-9.28-4.86-9.28-10.52s3.3-10.64,9.36-10.64,9,5.26,8.85,10.88h-14.7c0,1.59.08,3.07.84,4.58.96,1.91,3.07,3.07,5.18,3.07,2.63,0,4.55-1.51,5.42-3.91l2.95.6ZM173.32,23.24c.04-3.35-1.83-6.18-5.42-6.18-3.39,0-5.58,2.99-5.7,6.18h11.12Z"/>
      </g>
      <path class="cls-1" d="M176.75,3.95c0,2.18-1.77,3.95-3.95,3.95s-3.95-1.77-3.95-3.98,1.78-3.92,4.02-3.92c2.11,0,3.88,1.79,3.88,3.95ZM170.25,1.64c-.57.63-.89,1.45-.89,2.29,0,1.93,1.53,3.47,3.45,3.47s3.45-1.54,3.45-3.45-1.55-3.45-3.39-3.45c-1.05,0-1.93.38-2.61,1.14ZM173.97,6.23l-.94-2h-1.34v2h-.52V1.67h1.83c.83,0,1.47.55,1.47,1.27,0,.55-.34.99-.88,1.15l.99,2.15h-.62ZM172.96,3.8c.59,0,.94-.32.94-.88,0-.47-.33-.77-.87-.77h-1.34v1.64h1.27Z"/>
    </g>
  </g>
</svg>